<svg width="48" height="48" fill="none" xmlns="http://www.w3.org/2000/svg"><path d="M41.41 14.701a4.48 4.48 0 0 0-1.003-2.009 4.033 4.033 0 0 0-.33-.345A4.985 4.985 0 0 0 36.646 11h-25.29a4.992 4.992 0 0 0-3.432 1.347c-.118.11-.226.222-.33.345A4.426 4.426 0 0 0 6.5 15.595v16.81c0 .645.145 1.265.402 1.825a4.5 4.5 0 0 0 1.02 1.423c.11.103.217.197.335.291A5.02 5.02 0 0 0 11.355 37h25.29a4.988 4.988 0 0 0 3.433-1.347 4.597 4.597 0 0 0 1.025-1.423v-.004a4.34 4.34 0 0 0 .397-1.82v-16.81c0-.304-.031-.604-.09-.895ZM9.68 14.01a2.413 2.413 0 0 1 1.675-.658h25.29c.66 0 1.247.248 1.676.658.076.073.149.154.212.235L25.278 25.178A1.99 1.99 0 0 1 24 25.63c-.456 0-.907-.15-1.278-.453L9.472 14.24c.058-.081.13-.158.207-.231Zm-.696 18.396V16.672l9.592 7.92-9.587 7.911c-.005-.03-.005-.063-.005-.098Zm27.661 2.244h-25.29a2.44 2.44 0 0 1-1.174-.295l10.116-8.343.944.778c.79.65 1.78.979 2.759.979.985 0 1.974-.33 2.764-.98l.944-.777 10.112 8.343a2.445 2.445 0 0 1-1.175.295Zm2.371-2.244c0 .035 0 .068-.004.098l-9.588-7.906 9.592-7.92v15.728Z" fill="#303030"/></svg>