<svg width="48" height="48" fill="none" xmlns="http://www.w3.org/2000/svg"><path d="M36.927 9.003c-.431.02-.838.145-1.2.286h-.004c-.367.145-2.108.878-4.753 1.987l-9.486 3.996c-6.806 2.865-13.497 5.686-13.497 5.686l.08-.03s-.461.15-.943.482c-.246.16-.517.381-.753.728-.236.346-.427.878-.356 1.425.115.929.717 1.486 1.15 1.792.436.311.852.457.852.457h.01l6.274 2.113c.281.903 1.912 6.264 2.304 7.498.23.738.457 1.2.738 1.551.135.18.296.331.487.452.075.045.155.08.236.11.025.015.05.02.08.025l-.065-.015c.02.005.035.02.05.025.05.016.085.02.15.03.994.302 1.792-.316 1.792-.316l.045-.035 3.705-3.373 6.208 4.764.14.06c1.296.567 2.605.25 3.298-.306a3.36 3.36 0 0 0 .969-1.28l.045-.116 4.798-24.578c.136-.607.17-1.175.02-1.727-.15-.552-.537-1.069-1.004-1.345a2.405 2.405 0 0 0-1.37-.346Zm-.13 2.635c-.005.08.01.07-.025.226v.015L32.019 36.2c-.02.035-.056.11-.15.186-.101.08-.182.13-.598-.035l-7.594-5.822-4.587 4.18.963-6.153L32.46 16.993c.512-.477.342-.577.342-.577.035-.582-.773-.17-.773-.17l-15.645 9.691-.005-.025-7.498-2.524v-.006c-.005 0-.015-.005-.02-.005.005 0 .04-.015.04-.015l.04-.02.04-.015 13.501-5.686c3.408-1.436 6.841-2.881 9.481-3.996 2.64-1.109 4.593-1.922 4.703-1.967.106-.04.056-.04.13-.04Z" fill="#303030"/></svg>