<svg width="48" height="48" fill="none" xmlns="http://www.w3.org/2000/svg"><path d="m10.78 38 1.467-6.808a14.453 14.453 0 1 1 5.236 4.923L10.78 38Z" stroke="#303030" stroke-width="2.723"/><path d="M30.156 25.432c-.314-.21-.629-.314-.943.105l-1.257 1.675c-.314.21-.523.315-.942.105-1.571-.838-3.77-1.78-5.656-4.922-.105-.42.105-.629.314-.838l.943-1.466c.21-.21.105-.42 0-.629l-1.257-3.037c-.314-.838-.628-.733-.942-.733h-.838c-.21 0-.629.104-1.048.523-2.304 2.305-1.361 5.551.314 7.646.315.419 2.41 4.19 6.913 6.18 3.351 1.465 4.085 1.256 5.027 1.046 1.152-.104 2.304-1.047 2.828-1.99.105-.314.628-1.675.21-1.885" fill="#303030"/></svg>