<svg width="128" height="47" fill="none" xmlns="http://www.w3.org/2000/svg"><path d="m45.786 35.325-3.616-4.25 17.32-16.954 3.438 4.429-17.142 16.775Zm-4.464.67.848-4.92 4.152-.716h14.642l-.937 5.637H41.322Zm2.812-16.685.938-5.681h18.66l-.804 4.92-4.375.761H44.134ZM77.78 35.996l.358-4.16 3.035-18.207h6.965l-3.75 22.367H77.78Zm-6.026.536c-2.113 0-3.899-.492-5.357-1.476-1.458-.984-2.5-2.356-3.125-4.115-.595-1.79-.714-3.877-.357-6.263.238-1.73.655-3.295 1.25-4.697.625-1.431 1.414-2.654 2.366-3.668.982-1.044 2.098-1.834 3.348-2.37 1.28-.568 2.679-.85 4.197-.85 2.113 0 3.75.506 4.91 1.52 1.19 1.014 1.98 2.4 2.366 4.16.387 1.76.417 3.803.09 6.129-.239 1.849-.64 3.504-1.206 4.965-.536 1.432-1.22 2.654-2.053 3.668-.834.985-1.801 1.73-2.902 2.237-1.072.507-2.247.76-3.527.76Zm2.366-6.441c.714 0 1.37-.134 1.964-.403a5.124 5.124 0 0 0 1.563-1.207 5.636 5.636 0 0 0 1.116-1.745 7.654 7.654 0 0 0 .58-2.147c.179-1.491-.119-2.7-.893-3.624-.744-.954-1.756-1.431-3.035-1.431-.715 0-1.384.149-2.01.447-.594.298-1.13.7-1.606 1.208a5.731 5.731 0 0 0-1.16 1.7 8.071 8.071 0 0 0-.537 2.102c-.148 1.491.15 2.714.893 3.668.774.955 1.816 1.432 3.125 1.432ZM86.333 44.942l5.224-31.313h6.562l-.313 4.115-4.508 27.198h-6.965Zm17.902-31.85c2.143 0 3.928.492 5.357 1.476 1.458.985 2.5 2.371 3.125 4.16.625 1.76.759 3.833.401 6.218-.238 1.73-.669 3.31-1.294 4.742-.625 1.402-1.429 2.625-2.411 3.668a10.218 10.218 0 0 1-3.348 2.371c-1.25.537-2.634.806-4.152.806-2.083 0-3.72-.508-4.91-1.521-1.19-1.014-1.98-2.401-2.366-4.16-.387-1.79-.402-3.833-.045-6.13.238-1.848.625-3.488 1.16-4.92.566-1.461 1.266-2.684 2.099-3.668.833-1.014 1.786-1.774 2.857-2.281 1.071-.507 2.247-.76 3.527-.76Zm-2.366 6.442c-.715 0-1.369.149-1.965.447a5.035 5.035 0 0 0-1.607 1.163 6.745 6.745 0 0 0-1.116 1.79 7 7 0 0 0-.49 2.102c-.18 1.491.103 2.714.847 3.668.745.925 1.756 1.387 3.036 1.387a4.32 4.32 0 0 0 1.964-.448 5.906 5.906 0 0 0 1.652-1.163 6.387 6.387 0 0 0 1.161-1.744 6.255 6.255 0 0 0 .535-2.103c.149-1.49-.163-2.713-.937-3.668-.744-.954-1.771-1.431-3.08-1.431ZM116.664 25.304l2.946-20.622h7.723l-4.017 20.622h-6.652Zm1.92 11.407c-.804 0-1.518-.208-2.143-.626a4.058 4.058 0 0 1-1.429-1.655c-.297-.686-.372-1.446-.223-2.281.149-.985.64-1.835 1.473-2.55.833-.746 1.741-1.119 2.723-1.119.834 0 1.563.21 2.188.627.625.417 1.086.969 1.384 1.655.297.686.387 1.446.267 2.281-.208.984-.714 1.85-1.517 2.595-.804.716-1.712 1.073-2.723 1.073ZM9.841 46.014l2.09-19.064 4.664.533-.817 7.178L27.98 20.107l12.077 1.381L18.56 47l-8.719-.986Z" fill="#131418"/><path d="m30.217.986-2.09 19.064-4.664-.533.817-7.178-12.203 14.554L0 25.512 21.498 0l8.72.986Z" fill="#131418"/></svg>