<svg width="523" height="192" fill="none" xmlns="http://www.w3.org/2000/svg"><path d="m187.938 144.305-14.843-17.36 71.098-69.26 14.11 18.092-70.365 68.528Zm-18.324 2.741 3.481-20.101 17.042-2.924h60.103l-3.848 23.025h-76.778Zm11.544-68.162 3.848-23.208h76.595l-3.298 20.101-17.958 3.107h-59.187ZM319.267 147.046l1.466-16.995 12.461-74.375h28.585l-15.392 91.37h-27.12Zm-24.737 2.193c-8.674 0-16.003-2.01-21.989-6.03-5.986-4.021-10.262-9.625-12.827-16.813-2.443-7.309-2.932-15.837-1.466-25.583.977-7.066 2.688-13.462 5.131-19.188 2.565-5.848 5.803-10.843 9.712-14.985 4.031-4.264 8.612-7.492 13.743-9.685 5.253-2.315 10.994-3.472 17.224-3.472 8.674 0 15.393 2.07 20.157 6.213 4.886 4.142 8.124 9.807 9.712 16.995 1.588 7.188 1.71 15.533.366 25.035-.977 7.554-2.626 14.315-4.947 20.285-2.199 5.847-5.009 10.842-8.429 14.984-3.421 4.021-7.391 7.066-11.911 9.138-4.398 2.071-9.223 3.106-14.476 3.106Zm9.712-26.315c2.932 0 5.619-.548 8.062-1.644a21.027 21.027 0 0 0 6.414-4.934 23.034 23.034 0 0 0 4.581-7.127 31.177 31.177 0 0 0 2.382-8.772c.733-6.091-.489-11.025-3.665-14.802-3.054-3.898-7.207-5.848-12.46-5.848-2.932 0-5.681.61-8.246 1.828-2.443 1.218-4.642 2.863-6.597 4.934-1.954 1.95-3.543 4.264-4.764 6.944-1.1 2.68-1.833 5.543-2.199 8.589-.611 6.091.611 11.086 3.665 14.985 3.176 3.898 7.452 5.847 12.827 5.847ZM354.374 183.594l21.439-127.918h26.937l-1.283 16.812-18.507 111.106h-28.586Zm73.48-130.111c8.795 0 16.125 2.01 21.989 6.03 5.985 4.02 10.261 9.685 12.826 16.995 2.566 7.188 3.116 15.655 1.65 25.401-.978 7.066-2.749 13.523-5.314 19.371-2.566 5.726-5.864 10.721-9.895 14.984-3.91 4.143-8.491 7.371-13.743 9.686-5.131 2.193-10.812 3.289-17.042 3.289-8.551 0-15.27-2.071-20.156-6.213-4.887-4.142-8.124-9.807-9.712-16.995-1.588-7.31-1.649-15.655-.183-25.036.977-7.553 2.565-14.253 4.764-20.101 2.321-5.97 5.192-10.965 8.612-14.985 3.421-4.142 7.33-7.249 11.728-9.32 4.397-2.07 9.223-3.106 14.476-3.106Zm-9.712 26.314c-2.932 0-5.62.61-8.063 1.828-2.443 1.096-4.642 2.68-6.596 4.751-1.833 2.071-3.36 4.508-4.581 7.31-1.1 2.68-1.772 5.543-2.016 8.589-.733 6.091.427 11.086 3.481 14.984 3.054 3.777 7.208 5.665 12.461 5.665 2.932 0 5.619-.609 8.062-1.827a24.23 24.23 0 0 0 6.78-4.751c1.955-2.071 3.543-4.447 4.765-7.127 1.221-2.68 1.954-5.543 2.199-8.589.61-6.091-.672-11.086-3.848-14.985-3.054-3.898-7.269-5.848-12.644-5.848ZM478.872 103.371l12.094-84.244h31.701l-16.492 84.244h-27.303Zm7.879 46.599c-3.298 0-6.23-.853-8.795-2.558-2.566-1.706-4.52-3.96-5.864-6.762-1.222-2.802-1.527-5.908-.916-9.32.611-4.02 2.626-7.492 6.047-10.416 3.42-3.045 7.146-4.568 11.178-4.568 3.42 0 6.413.852 8.978 2.558 2.566 1.706 4.459 3.959 5.681 6.761 1.221 2.803 1.588 5.909 1.099 9.32-.855 4.021-2.932 7.554-6.23 10.599-3.298 2.924-7.024 4.386-11.178 4.386ZM169.181 182.048l3.733-21.899h1.882l-3.733 21.899h-1.882ZM175.013 182.048l2.698-15.642h1.882l-2.698 15.642h-1.882Zm4.518-19.709c-.335 0-.628-.126-.879-.376a1.198 1.198 0 0 1-.376-.876c0-.354.125-.646.376-.876.251-.25.544-.375.879-.375.355 0 .648.125.878.375.251.23.376.522.376.876 0 .334-.125.626-.376.876-.23.25-.523.376-.878.376ZM185.889 188.68c-.962 0-1.83-.104-2.603-.313-.774-.208-1.412-.438-1.914-.688l-1.067-.532.847-1.501c.231.146.576.323 1.036.531a9.502 9.502 0 0 0 1.694.532 8.142 8.142 0 0 0 2.039.251c1.673 0 3.137-.511 4.392-1.533 1.275-1.022 2.101-2.649 2.478-4.881l2.384-14.14h1.882l-2.384 14.265c-.293 1.815-.878 3.317-1.757 4.505-.878 1.189-1.934 2.065-3.168 2.628a8.783 8.783 0 0 1-3.859.876Zm1.255-6.632c-1.401 0-2.593-.344-3.576-1.032-.962-.71-1.652-1.679-2.07-2.91-.398-1.251-.461-2.67-.189-4.255.272-1.543.795-2.899 1.569-4.067.795-1.168 1.767-2.085 2.917-2.753a7.544 7.544 0 0 1 3.796-1.001c1.359 0 2.499.344 3.419 1.033.921.688 1.569 1.637 1.945 2.846.398 1.21.46 2.608.189 4.193-.251 1.543-.764 2.919-1.538 4.129-.773 1.189-1.714 2.128-2.823 2.816a6.925 6.925 0 0 1-3.639 1.001Zm.408-1.658a5.192 5.192 0 0 0 2.855-.845c.899-.563 1.652-1.335 2.258-2.315.628-.98 1.046-2.106 1.255-3.379.209-1.209.178-2.273-.094-3.191-.272-.938-.742-1.668-1.412-2.19-.669-.542-1.505-.813-2.509-.813a5.884 5.884 0 0 0-3.075.845c-.941.542-1.735 1.303-2.384 2.283-.648.96-1.077 2.065-1.286 3.317-.209 1.23-.167 2.325.126 3.284.313.939.836 1.679 1.568 2.222.732.521 1.631.782 2.698.782ZM198.188 182.048l3.67-21.899h1.882l-3.67 21.899h-1.882Zm11.261 0 1.349-8.072 2.039-.813-1.505 8.885h-1.883Zm1.349-8.072c.293-1.731.304-3.034.032-3.91-.251-.897-.69-1.502-1.318-1.815-.627-.312-1.37-.469-2.227-.469-1.527 0-2.813.563-3.859 1.689-1.024 1.106-1.704 2.639-2.039 4.599l-1.16-.125c.292-1.668.763-3.087 1.411-4.255.669-1.188 1.506-2.096 2.51-2.721 1.025-.626 2.196-.939 3.513-.939 1.924 0 3.367.595 4.329 1.783.983 1.189 1.266 2.972.847 5.35l-.125.813h-1.914ZM220.42 182.423c-1.401 0-2.436-.386-3.106-1.157-.648-.793-.857-1.888-.627-3.285l2.76-16.456h1.883l-2.792 16.581c-.147.834-.042 1.481.313 1.94.377.438.973.657 1.789.657.271 0 .543-.052.815-.157.293-.104.701-.292 1.224-.563l.627 1.689c-.69.334-1.244.543-1.663.626a6.2 6.2 0 0 1-1.223.125Zm-4.862-14.297.282-1.72h9.662l-.282 1.72h-9.662ZM225.562 182.048l2.635-15.642h1.757l-.377 2.878-2.133 12.764h-1.882Zm11.262 0 1.349-8.072h1.913l-1.38 8.072h-1.882Zm1.349-8.072c.292-1.731.303-3.034.031-3.91-.251-.897-.69-1.502-1.318-1.815-.627-.312-1.369-.469-2.227-.469-1.527 0-2.813.563-3.858 1.689-1.025 1.106-1.705 2.639-2.04 4.599l-1.16-.125c.293-1.668.763-3.087 1.411-4.255.67-1.188 1.506-2.096 2.51-2.721 1.025-.626 2.196-.939 3.514-.939 1.924 0 3.367.595 4.329 1.783.983 1.189 1.265 2.972.847 5.35l-.126.813h-1.913ZM242.116 182.048l2.698-15.642h1.882l-2.698 15.642h-1.882Zm4.517-19.709c-.334 0-.627-.126-.878-.376a1.198 1.198 0 0 1-.376-.876c0-.354.125-.646.376-.876.251-.25.544-.375.878-.375.356 0 .649.125.879.375.251.23.376.522.376.876 0 .334-.125.626-.376.876-.23.25-.523.376-.879.376ZM247.973 182.048l2.635-15.642h1.757l-.377 2.878-2.133 12.764h-1.882Zm11.262 0 1.349-8.072h1.913l-1.38 8.072h-1.882Zm1.349-8.072c.293-1.731.303-3.034.031-3.91-.251-.897-.69-1.502-1.317-1.815-.628-.312-1.37-.469-2.228-.469-1.526 0-2.812.563-3.858 1.689-1.025 1.106-1.705 2.639-2.039 4.599l-1.161-.125c.293-1.668.763-3.087 1.412-4.255.669-1.188 1.506-2.096 2.509-2.721 1.025-.626 2.196-.939 3.514-.939 1.924 0 3.367.595 4.329 1.783.983 1.189 1.265 2.972.847 5.35l-.126.813h-1.913ZM269.421 188.68c-.962 0-1.83-.104-2.603-.313-.774-.208-1.412-.438-1.914-.688l-1.067-.532.847-1.501c.23.146.575.323 1.036.531a9.502 9.502 0 0 0 1.694.532 8.142 8.142 0 0 0 2.039.251c1.673 0 3.137-.511 4.391-1.533 1.276-1.022 2.102-2.649 2.479-4.881l2.384-14.14h1.882l-2.384 14.265c-.293 1.815-.878 3.317-1.757 4.505-.878 1.189-1.934 2.065-3.168 2.628a8.783 8.783 0 0 1-3.859.876Zm1.255-6.632c-1.401 0-2.593-.344-3.576-1.032-.962-.71-1.652-1.679-2.071-2.91-.397-1.251-.46-2.67-.188-4.255.272-1.543.795-2.899 1.569-4.067.794-1.168 1.767-2.085 2.917-2.753a7.544 7.544 0 0 1 3.796-1.001c1.359 0 2.499.344 3.419 1.033.92.688 1.569 1.637 1.945 2.846.398 1.21.46 2.608.188 4.193-.251 1.543-.763 2.919-1.537 4.129-.773 1.189-1.715 2.128-2.823 2.816a6.925 6.925 0 0 1-3.639 1.001Zm.408-1.658a5.192 5.192 0 0 0 2.855-.845c.899-.563 1.652-1.335 2.258-2.315.628-.98 1.046-2.106 1.255-3.379.209-1.209.178-2.273-.094-3.191-.272-.938-.743-1.668-1.412-2.19-.669-.542-1.506-.813-2.509-.813a5.881 5.881 0 0 0-3.075.845c-.941.542-1.735 1.303-2.384 2.283-.648.96-1.077 2.065-1.286 3.317-.209 1.23-.167 2.325.126 3.284.313.939.836 1.679 1.568 2.222.732.521 1.631.782 2.698.782ZM290.189 182.048l2.949-17.582c.272-1.606.816-2.784 1.631-3.535.837-.772 1.987-1.158 3.451-1.158.356 0 .753.073 1.192.219.46.125.983.313 1.569.563l-.847 1.533a9.791 9.791 0 0 0-1.318-.438c-.334-.104-.596-.156-.784-.156-.837 0-1.506.261-2.008.782s-.836 1.293-1.004 2.315l-2.948 17.457h-1.883Zm-.627-13.922.282-1.72h9.662l-.282 1.72h-9.662ZM310.749 182.048l.407-2.91 2.134-12.732h1.882l-2.635 15.642h-1.788Zm-5.553.375c-1.171 0-2.206-.271-3.106-.813-.899-.563-1.61-1.335-2.133-2.315-.502-.98-.753-2.107-.753-3.379 0-1.23.199-2.43.596-3.598a10.794 10.794 0 0 1 1.757-3.191 8.877 8.877 0 0 1 2.667-2.252c1.045-.563 2.206-.845 3.482-.845 1.171 0 2.175.271 3.011.814.837.521 1.485 1.261 1.945 2.221.46.959.69 2.075.69 3.347 0 1.669-.24 3.129-.721 4.38-.46 1.251-1.088 2.294-1.882 3.129-.795.834-1.674 1.459-2.636 1.877a7.273 7.273 0 0 1-2.917.625Zm.408-1.689c1.025 0 1.934-.24 2.729-.72a6.666 6.666 0 0 0 2.071-1.908c.564-.813.993-1.7 1.286-2.659.292-.96.439-1.919.439-2.878 0-1.46-.366-2.628-1.098-3.504-.732-.897-1.736-1.345-3.012-1.345-1.045 0-1.997.239-2.854.719a7.212 7.212 0 0 0-2.196 1.877 8.92 8.92 0 0 0-1.412 2.597 9.01 9.01 0 0 0-.47 2.878c0 1.46.407 2.649 1.223 3.566.816.918 1.914 1.377 3.294 1.377ZM321.697 182.423c-1.213 0-2.227-.177-3.043-.532-.816-.375-1.443-.844-1.882-1.407-.439-.584-.722-1.179-.847-1.784l1.757-.5a3.29 3.29 0 0 0 1.38 1.846 4.24 4.24 0 0 0 2.321.657c.732 0 1.454-.115 2.165-.344.711-.251 1.297-.605 1.757-1.064.46-.48.69-1.074.69-1.783 0-.605-.241-1.095-.722-1.471-.46-.375-1.16-.698-2.102-.97l-1.474-.406c-1.213-.334-2.154-.824-2.823-1.471-.649-.646-.973-1.387-.973-2.221 0-1.001.262-1.867.784-2.597.544-.75 1.297-1.324 2.259-1.72.962-.417 2.081-.626 3.357-.626 1.38 0 2.499.303 3.356.907.858.584 1.402 1.377 1.632 2.378l-1.757.594c-.23-.813-.627-1.376-1.192-1.689-.544-.313-1.328-.469-2.353-.469-1.171 0-2.164.292-2.98.876-.816.584-1.224 1.303-1.224 2.158 0 .397.21.793.628 1.189.439.376 1.108.678 2.008.907l1.286.345c1.506.396 2.583.969 3.231 1.72.648.751.972 1.585.972 2.503 0 .959-.282 1.815-.847 2.565-.564.751-1.317 1.346-2.258 1.784-.921.417-1.956.625-3.106.625ZM335.777 182.423c-1.402 0-2.437-.386-3.106-1.157-.648-.793-.857-1.888-.627-3.285l2.76-16.456h1.882l-2.792 16.581c-.146.834-.041 1.481.314 1.94.377.438.973.657 1.788.657.272 0 .544-.052.816-.157.293-.104.7-.292 1.223-.563l.628 1.689c-.69.334-1.245.543-1.663.626a6.2 6.2 0 0 1-1.223.125Zm-4.863-14.297.283-1.72h9.662l-.283 1.72h-9.662ZM40.395 187.971l8.578-77.878 19.145 2.178-3.354 29.321 50.092-59.452 49.572 5.641L76.184 192l-35.79-4.029Z" fill="#131418"/><path d="m124.033 4.029-8.579 77.878-19.145-2.178 3.355-29.322-50.092 59.453L0 104.219 88.243 0l35.79 4.029Z" fill="#131418"/></svg>